<?xml version="1.0" encoding="iso-8859-1"?>
<!-- Generator: Adobe Illustrator 19.0.0, SVG Export Plug-In . SVG Version: 6.00 Build 0)  -->
<svg version="1.1" id="Capa_1" xmlns="http://www.w3.org/2000/svg" xmlns:xlink="http://www.w3.org/1999/xlink" x="0px" y="0px"
	 viewBox="0 0 512.016 512.016" style="enable-background:new 0 0 512.016 512.016;" xml:space="preserve">
<g>
	<g>
		<path d="M487.512,242.276c-3.368-17.96-18.408-31.384-36.568-32.664l-80.344-5.704l-50.896-30.528
			c-19.136-11.528-41.112-17.624-63.576-17.624h-40.936h-16.128h-44.688h-16.504H82.016c-9.152,0-17.376,5.08-21.472,13.264
			l-23.712,47.424l-12.704,25.424v1.888v16v24c0,22.056,17.944,40,40,40h11.376c2.864,6.616,7.48,12.144,13.136,16.272L0,340.26
			l0.04,16l192-0.504l-0.048-16l-56.2,0.144c5.6-4.12,10.16-9.616,12.976-16.144h59.36h16h92.184h17.224h21.96
			c2.808,6.472,7.296,11.904,12.784,16H256.016v16h208v-16h-48.04c5.512-4.104,10-9.544,12.784-16h35.368c13.232,0,24-10.768,24-24
			v-50.24C488.128,247.052,487.928,244.652,487.512,242.276z M150.376,171.756h50.688l6,48h-68.688L150.376,171.756z M74.864,176.18
			c1.368-2.728,4.112-4.424,7.16-4.424h51.856l-12,48h-1.752H77.136c-0.816-1.496-1.824-2.856-2.928-4.144
			c-0.304-0.344-0.64-0.648-0.96-0.976c-0.992-1.016-2.056-1.944-3.224-2.784c-0.432-0.312-0.848-0.616-1.296-0.904
			c-1.576-0.984-3.232-1.856-5.04-2.472l-4.264-1.416L74.864,176.18z M52.184,221.532l6.424,2.128
			c2.624,0.888,4.592,3.048,5.312,6.176l0.072,0.328c0.08,0.344,0.144,0.712,0.144,1.12v4.48c0,4.408-3.584,8-8,8H41.072
			L52.184,221.532z M72.128,307.764h-8c-13.232,0-24-10.768-24-24h24v-16h-24v-0.008v-8h16c13.232,0,24-10.768,24-24h37.752h2.248
			v32.824c-0.296-0.064-0.6-0.04-0.896-0.088c-2.344-0.432-4.72-0.728-7.104-0.728C90.072,267.764,72.128,285.708,72.128,307.764z
			 M135.4,313.492c-0.016,0.072-0.024,0.136-0.04,0.208l-0.056,0.192c-2.728,10.528-12.24,17.872-23.176,17.872
			c-10.968,0-20.512-7.392-23.256-18.168c-0.504-1.776-0.744-3.688-0.744-5.84c0-13.232,10.768-24,24-24
			c4.216,0,8.256,1.096,12.016,3.256c7.392,4.248,11.984,12.192,11.984,20.744C136.128,309.868,135.88,311.74,135.4,313.492z
			 M208.128,307.756h-56c0-2.016-0.192-4-0.488-5.968c-0.096-0.624-0.248-1.232-0.376-1.848c-0.272-1.336-0.584-2.648-0.984-3.936
			c-0.216-0.688-0.448-1.36-0.696-2.032c-0.448-1.216-0.968-2.4-1.528-3.568c-0.304-0.616-0.584-1.24-0.912-1.848
			c-0.744-1.352-1.576-2.64-2.464-3.896c-0.208-0.288-0.352-0.608-0.568-0.896h64.016V307.756z M208.128,267.756h-72v-32h72V267.756
			z M223.192,219.756l-6-48h38.936c19.544,0,38.672,5.304,55.328,15.344l41.72,25.008l-11.472,7.648H224.128H223.192z
			 M322.712,307.756h-98.584v-24h108.184L322.712,307.756z M336.128,267.756h-112v-32h1.064h110.936V267.756z M416.144,307.916
			c-0.016,2.04-0.256,3.808-0.744,5.584c-0.016,0.064-0.024,0.128-0.04,0.192l-0.056,0.2c-2.728,10.528-12.24,17.872-23.176,17.872
			c-10.968,0-20.512-7.392-23.256-18.168c-0.504-1.776-0.744-3.688-0.744-5.84c0-0.856,0.064-1.656,0.136-2.624
			c0.048-0.656,0.152-1.312,0.352-2.2c0.184-0.784,0.36-1.56,0.568-2.256c0.504-1.56,1.136-2.984,1.76-4.184
			c0.448-0.792,0.864-1.584,1.44-2.32l1.104-1.512c0.472-0.664,1.048-1.272,1.664-1.888c0.608-0.608,1.192-1.176,1.856-1.64
			l1.528-1.12c0.752-0.576,1.56-1.016,2.088-1.328c1.44-0.752,2.864-1.376,4.376-1.856c0.84-0.256,1.68-0.448,2.544-0.648
			c0.64-0.152,1.272-0.248,2.224-0.32c0.44-0.032,0.872-0.048,1.312-0.072c0.896-0.024,1.88,0,3.832,0.12l1.608,0.24
			c0.904,0.128,1.832,0.392,2.792,0.688c5.168,1.584,9.584,4.896,12.912,9.784c0.416,0.568,0.704,1.144,1.04,1.768
			c0.664,1.208,1.144,2.248,1.472,3.224l0.448,1.488l0.688,3.144c0.056,0.312,0.112,0.632,0.112,0.952l0.128,1.4
			C416.184,307.02,416.144,307.452,416.144,307.916z M472.128,275.756h-16v16h16v8c0,4.408-3.584,8-8,8h-32
			c0-1.144-0.04-2.2-0.168-3.256c-0.056-1.2-0.224-2.36-0.392-3.256c-0.064-0.52-0.16-1.208-0.344-2l-0.576-2.848l-1.088-2.832
			c-0.584-1.568-1.32-3.152-2.256-4.864c-0.632-1.168-1.288-2.336-1.832-3.048c-0.024-0.032-0.056-0.064-0.072-0.096
			c-0.032-0.048-0.056-0.104-0.088-0.144c-0.096-0.136-0.216-0.248-0.312-0.392c-4.568-6.936-11.264-12.248-19.688-15.136
			c-0.552-0.168-1.128-0.336-1.68-0.456c-2.064-0.632-3.92-1.024-5.656-1.224c-0.984-0.184-1.912-0.32-2.472-0.264
			c-2.312-0.184-4.344-0.224-7.248,0c-1.448,0.112-2.888,0.328-3.736,0.552c-0.072,0.008-0.152,0.04-0.224,0.056
			c-0.112,0.024-0.232,0.024-0.344,0.056c-1.216,0.28-2.448,0.568-3.776,0.984c-2.32,0.744-4.592,1.696-7.216,3.072
			c-1.312,0.752-2.616,1.52-3.84,2.432c-0.536,0.352-1.016,0.712-1.208,0.888c-1.416,0.984-2.752,2.168-4.064,3.48
			c-1.304,1.304-2.48,2.624-3.144,3.608c-0.44,0.536-0.856,1.096-1.216,1.648c-0.928,1.256-1.72,2.6-2.592,4.144
			c-1.232,2.36-2.192,4.64-2.96,7.024c-0.352,1.144-0.624,2.288-0.936,3.664c-0.336,1.424-0.544,2.848-0.688,4.592
			c-0.104,1.224-0.184,2.376-0.184,3.616h-12.184l12.184-30.464v-45.256l18.168-12.112l79.512,5.656
			c7.376,0.52,13.84,4.424,17.912,10.176h-27.592v16h32V275.756z"/>
	</g>
</g>
<g>
	<g>
		<rect x="208.016" y="339.756" width="32" height="16"/>
	</g>
</g>
<g>
	<g>
		<rect x="480.016" y="339.756" width="32" height="16"/>
	</g>
</g>
<g>
	<g>
		<rect x="384.096" y="299.756" width="16" height="16"/>
	</g>
</g>
<g>
	<g>
		<rect x="104.096" y="299.756" width="16" height="16"/>
	</g>
</g>
<g>
</g>
<g>
</g>
<g>
</g>
<g>
</g>
<g>
</g>
<g>
</g>
<g>
</g>
<g>
</g>
<g>
</g>
<g>
</g>
<g>
</g>
<g>
</g>
<g>
</g>
<g>
</g>
<g>
</g>
</svg>
